<?xml version="1.0" standalone="no"?>
<!DOCTYPE svg PUBLIC "-//W3C//DTD SVG 20010904//EN"
 "http://www.w3.org/TR/2001/REC-SVG-20010904/DTD/svg10.dtd">
<svg version="1.0" xmlns="http://www.w3.org/2000/svg"
 width="260.000000pt" height="260.000000pt" viewBox="0 0 260.000000 260.000000"
 preserveAspectRatio="xMidYMid meet">
<metadata>
Created by potrace 1.11, written by Peter Selinger 2001-2013
</metadata>
<g transform="translate(0.000000,260.000000) scale(0.100000,-0.100000)"
fill="#000000" stroke="none">
<path d="M169 2136 c-1 -1 -2 -51 -3 -113 -1 -93 1 -112 14 -115 8 -2 224 -3
480 -2 l465 0 5 112 c3 62 3 113 0 114 -5 1 -959 5 -961 4z"/>
<path d="M1483 2021 l2 -115 425 0 c371 -1 425 -3 425 -16 0 -8 4 -20 7 -26 4
-6 5 -14 2 -17 -11 -10 -9 -157 1 -157 7 0 7 -3 0 -8 -5 -4 -10 -20 -10 -37 0
-16 5 -33 10 -37 7 -5 7 -8 0 -8 -6 0 -9 -38 -8 -97 0 -53 -1 -101 -3 -107 -3
-8 -135 -11 -430 -11 l-425 1 1 -121 c0 -66 0 -127 -1 -135 0 -11 0 -445 0
-530 1 -105 4 -179 10 -186 9 -13 61 -12 61 1 0 5 5 3 10 -5 7 -11 10 -11 10
-2 0 7 4 11 8 8 4 -2 8 156 7 352 0 196 1 364 3 372 3 13 57 15 430 15 l427 0
0 490 0 490 -482 1 -482 0 2 -115z"/>
<path d="M169 1385 c-5 -1 -4 -975 1 -976 21 -5 944 -3 951 2 6 3 8 54 7 115
l-3 109 -425 0 -425 0 -3 258 c-2 202 0 257 10 258 7 1 200 2 428 3 l415 1 5
113 c3 61 3 113 0 113 -4 2 -957 6 -961 4z"/>
</g>
</svg>
